<svg xmlns="http://www.w3.org/2000/svg" viewBox="0 0 640 180" role="img" aria-label="Göhl Solutions">
  <defs>
    <linearGradient id="g" x1="0" x2="1" y1="0" y2="1">
      <stop offset="0" stop-color="#00d5ff"/>
      <stop offset="0.55" stop-color="#6cf2ff"/>
      <stop offset="1" stop-color="#b8c7d9"/>
    </linearGradient>
    <linearGradient id="s" x1="0" x2="1">
      <stop offset="0" stop-color="#11203d"/>
      <stop offset="1" stop-color="#07111f"/>
    </linearGradient>
    <filter id="glow"><feGaussianBlur stdDeviation="3" result="b"/><feMerge><feMergeNode in="b"/><feMergeNode in="SourceGraphic"/></feMerge></filter>
  </defs>
  <rect width="640" height="180" rx="34" fill="url(#s)"/>
  <path d="M88 132V48h85v25h-55v12h48v23h-48v24h-30Z" fill="url(#g)" filter="url(#glow)"/>
  <path d="M177 132V48h30v58h50v26h-80Z" fill="#dbe7f3" opacity=".94"/>
  <path d="M66 42h209v96H66z" fill="none" stroke="#00d5ff" stroke-width="3" opacity=".35"/>
  <path d="M303 69c10-17 28-26 50-26 21 0 38 8 51 23l-23 21c-7-8-16-12-27-12-19 0-32 13-32 32s13 32 32 32c11 0 20-4 27-12l23 21c-13 15-30 23-51 23-22 0-40-9-50-26-10-17-10-59 0-76Z" fill="#eef6ff"/>
  <text x="420" y="91" font-family="Inter, Segoe UI, Arial, sans-serif" font-size="44" font-weight="800" fill="#eef6ff">Göhl</text>
  <text x="420" y="132" font-family="Inter, Segoe UI, Arial, sans-serif" font-size="34" font-weight="650" fill="#66e4ff">Solutions</text>
</svg>